<svg width="801" height="604" viewBox="0 0 801 604" fill="none" xmlns="http://www.w3.org/2000/svg">
<path d="M-322.5 562C-322.5 560.491 -322.494 558.984 -322.482 557.478L-322.982 557.474C-322.958 554.459 -322.911 551.45 -322.84 548.447L-322.34 548.459C-322.269 545.458 -322.174 542.463 -322.056 539.474L-322.556 539.455C-322.438 536.454 -322.296 533.459 -322.13 530.471L-321.631 530.499C-321.465 527.49 -321.275 524.488 -321.061 521.493L-321.56 521.457C-321.346 518.459 -321.109 515.467 -320.848 512.482L-320.35 512.526C-320.09 509.54 -319.806 506.561 -319.499 503.589L-319.996 503.538C-319.686 500.538 -319.352 497.545 -318.995 494.559L-318.499 494.619C-318.142 491.636 -317.762 488.66 -317.358 485.691L-317.854 485.624C-317.45 482.653 -317.023 479.689 -316.573 476.733L-316.079 476.808C-315.626 473.831 -315.149 470.861 -314.649 467.898L-315.142 467.815C-314.642 464.85 -314.118 461.892 -313.572 458.942L-313.08 459.033C-312.534 456.086 -311.965 453.147 -311.373 450.216L-311.863 450.117C-311.266 447.166 -310.647 444.222 -310.005 441.287L-309.516 441.394C-308.874 438.459 -308.208 435.531 -307.52 432.613L-308.007 432.498C-307.318 429.578 -306.606 426.665 -305.872 423.762L-305.387 423.885C-304.65 420.97 -303.89 418.065 -303.107 415.169L-303.59 415.038C-302.805 412.135 -301.998 409.24 -301.169 406.355L-300.688 406.494C-299.859 403.611 -299.008 400.739 -298.134 397.876L-298.612 397.73C-297.734 394.853 -296.834 391.987 -295.911 389.13L-295.436 389.284C-294.512 386.424 -293.567 383.575 -292.599 380.736L-293.072 380.574C-292.103 377.733 -291.112 374.901 -290.1 372.08L-289.629 372.249C-288.614 369.422 -287.577 366.606 -286.519 363.8L-286.987 363.624C-285.925 360.81 -284.841 358.007 -283.736 355.216L-283.271 355.4C-282.167 352.61 -281.041 349.832 -279.893 347.065L-280.355 346.873C-279.204 344.097 -278.031 341.332 -276.837 338.579L-276.378 338.778C-275.183 336.022 -273.966 333.277 -272.728 330.545L-273.184 330.338C-271.944 327.603 -270.684 324.879 -269.403 322.168L-268.951 322.381C-267.668 319.667 -266.364 316.965 -265.039 314.275L-265.488 314.054C-264.16 311.357 -262.811 308.672 -261.441 306L-260.996 306.228C-259.628 303.558 -258.238 300.9 -256.829 298.255L-257.27 298.02C-255.857 295.369 -254.423 292.73 -252.969 290.105L-252.531 290.347C-251.076 287.72 -249.601 285.106 -248.105 282.505L-248.539 282.256C-247.042 279.652 -245.524 277.062 -243.987 274.485L-243.558 274.742C-242.02 272.164 -240.462 269.6 -238.885 267.049L-239.31 266.786C-237.729 264.231 -236.129 261.688 -234.508 259.16L-234.087 259.43C-232.468 256.904 -230.83 254.391 -229.172 251.893L-229.588 251.617C-227.927 249.114 -226.247 246.626 -224.547 244.151L-224.135 244.434C-222.435 241.96 -220.716 239.5 -218.977 237.054L-219.385 236.765C-217.645 234.317 -215.886 231.884 -214.108 229.465L-213.705 229.762C-211.928 227.344 -210.132 224.941 -208.317 222.553L-208.715 222.25C-206.897 219.858 -205.06 217.482 -203.205 215.12L-202.812 215.429C-200.959 213.069 -199.087 210.725 -197.196 208.396L-197.585 208.081C-195.692 205.749 -193.781 203.433 -191.852 201.132L-191.469 201.454C-189.541 199.154 -187.594 196.87 -185.63 194.602L-186.008 194.274C-184.042 192.004 -182.058 189.75 -180.057 187.512L-179.684 187.845C-177.684 185.609 -175.667 183.388 -173.631 181.184L-173.999 180.845C-171.961 178.638 -169.906 176.448 -167.834 174.275L-167.472 174.62C-165.402 172.448 -163.315 170.293 -161.21 168.154L-161.566 167.804C-159.46 165.664 -157.337 163.54 -155.196 161.434L-154.846 161.79C-152.707 159.686 -150.552 157.598 -148.381 155.528L-148.726 155.166C-146.552 153.094 -144.362 151.039 -142.155 149.001L-141.816 149.369C-139.612 147.334 -137.392 145.316 -135.155 143.316L-135.488 142.943C-133.25 140.942 -130.996 138.958 -128.726 136.992L-128.398 137.37C-126.13 135.406 -123.846 133.46 -121.547 131.531L-121.868 131.148C-119.567 129.219 -117.251 127.308 -114.919 125.416L-114.604 125.804C-112.275 123.914 -109.931 122.042 -107.571 120.188L-107.88 119.795C-105.519 117.94 -103.142 116.103 -100.75 114.286L-100.447 114.684C-98.0593 112.869 -95.6563 111.072 -93.2385 109.295L-93.5346 108.892C-91.1162 107.114 -88.683 105.355 -86.2353 103.615L-85.9456 104.023C-83.5001 102.285 -81.04 100.565 -78.5657 98.8654L-78.8488 98.4533C-76.3745 96.7535 -73.8859 95.0729 -71.3833 93.4119L-71.1068 93.8285C-68.6085 92.1704 -66.0962 90.5317 -63.5701 88.9127L-63.8399 88.4918C-61.3116 86.8714 -58.7694 85.2706 -56.2136 83.6898L-55.9505 84.1151C-53.4 82.5375 -50.8358 80.9798 -48.2584 79.4422L-48.5145 79.0128C-45.9377 77.4755 -43.3475 75.9583 -40.7441 74.4613L-40.4949 74.8947C-37.8939 73.3991 -35.2798 71.9237 -32.6528 70.4687L-32.8951 70.0313C-30.2694 68.5771 -27.6309 67.1433 -24.9797 65.7301L-24.7445 66.1714C-22.0995 64.7615 -19.442 63.3722 -16.772 62.0036L-17.0001 61.5587C-14.3277 60.1889 -11.6429 58.8399 -8.94598 57.5118L-8.7251 57.9604C-6.03491 56.6357 -3.33261 55.332 -0.618347 54.0493L-0.83197 53.5972C1.8797 52.3158 4.60327 51.0554 7.33853 49.8163L7.54486 50.2717C10.2777 49.0337 13.0222 47.817 15.7781 46.6217L15.5792 46.1629C18.3326 44.9687 21.0975 43.7959 23.8737 42.6447L24.0652 43.1065C26.8324 41.959 29.6107 40.833 32.4 39.7287L32.216 39.2638C35.0078 38.1585 37.8105 37.0749 40.6241 36.0133L40.8006 36.4811C43.6062 35.4224 46.4226 34.3855 49.2495 33.3707L49.0805 32.9001C51.9016 31.8874 54.733 30.8965 57.5748 29.9278L57.7361 30.4011C60.5753 29.4333 63.4247 28.4875 66.2842 27.5641L66.1305 27.0883C68.9872 26.1658 71.8538 25.2656 74.7303 24.3877L74.8762 24.866C77.7392 23.9923 80.612 23.1408 83.4943 22.3118L83.356 21.8313C86.2409 21.0016 89.1352 20.1943 92.0389 19.4098L92.1693 19.8925C95.0656 19.1099 97.9711 18.3499 100.886 17.6127L100.763 17.128C103.666 16.3937 106.578 15.6821 109.499 14.9932L109.614 15.4799C112.532 14.7916 115.459 14.1261 118.395 13.4836L118.288 12.9951C121.223 12.3528 124.166 11.7334 127.118 11.1371L127.217 11.6272C130.148 11.0352 133.087 10.466 136.034 9.91979L135.943 9.42816C138.893 8.8815 141.85 8.35787 144.816 7.85747L144.899 8.3505C147.861 7.8507 150.831 7.37409 153.809 6.92087L153.734 6.42656C156.69 5.97661 159.654 5.5497 162.625 5.14601L162.692 5.64145C165.661 5.23812 168.637 4.85798 171.62 4.50124L171.56 4.00477C174.546 3.64771 177.539 3.31406 180.539 3.004L180.59 3.50135C183.562 3.19417 186.541 2.91018 189.527 2.64955L189.483 2.15144C192.468 1.89086 195.46 1.65361 198.458 1.43988L198.494 1.93862C201.489 1.72508 204.491 1.53504 207.5 1.36868L207.472 0.86944C210.461 0.70419 213.455 0.562287 216.456 0.44391L216.476 0.943521C219.464 0.825612 222.459 0.731065 225.46 0.660056L225.448 0.160196C228.451 0.0891243 231.46 0.0416123 234.475 0.0178374L234.479 0.517822C235.984 0.505948 237.492 0.5 239 0.5C240.509 0.5 242.016 0.505951 243.522 0.517832L243.526 0.017847C246.541 0.0416282 249.55 0.0891464 252.553 0.160224L252.541 0.660084C255.542 0.731099 258.537 0.825652 261.526 0.943567L261.545 0.443955C264.546 0.562338 267.541 0.704246 270.529 0.869501L270.501 1.36874C273.51 1.5351 276.512 1.72515 279.507 1.93869L279.543 1.43996C282.541 1.65369 285.533 1.89094 288.518 2.15153L288.474 2.64964C291.46 2.91027 294.439 3.19427 297.411 3.50145L297.462 3.0041C300.462 3.31416 303.455 3.64782 306.441 4.00489L306.381 4.50135C309.364 4.85811 312.34 5.23824 315.309 5.64158L315.376 5.14613C318.347 5.54983 321.311 5.97675 324.267 6.42669L324.192 6.921C327.169 7.37423 330.139 7.85084 333.102 8.35065L333.185 7.85762C336.15 8.35802 339.108 8.88166 342.058 9.42832L341.967 9.91996C344.914 10.4661 347.853 11.0353 350.784 11.6274L350.883 11.1373C353.834 11.7335 356.778 12.353 359.713 12.9953L359.606 13.4838C362.541 14.1263 365.469 14.7918 368.387 15.48L368.502 14.9934C371.422 15.6823 374.334 16.3939 377.238 17.1282L377.115 17.6129C380.03 18.3501 382.935 19.1101 385.831 19.8926L385.962 19.4099C388.865 20.1945 391.76 21.0018 394.645 21.8315L394.506 22.312C397.389 23.141 400.261 23.9924 403.124 24.8662L403.27 24.3879C406.147 25.2657 409.013 26.166 411.87 27.0885L411.716 27.5643C414.576 28.4877 417.425 29.4334 420.264 30.4013L420.426 29.928C423.267 30.8967 426.099 31.8875 428.92 32.9003L428.751 33.3709C431.578 34.3857 434.394 35.4226 437.2 36.4813L437.376 36.0135C440.19 37.0751 442.993 38.1587 445.784 39.264L445.6 39.7289C448.39 40.8332 451.168 41.9592 453.935 43.1067L454.127 42.6449C456.903 43.7961 459.668 44.9689 462.421 46.1631L462.222 46.6218C464.978 47.8171 467.723 49.0339 470.455 50.2719L470.662 49.8164C473.397 51.0555 476.121 52.3159 478.832 53.5974L478.619 54.0494C481.333 55.3321 484.035 56.6359 486.725 57.9605L486.946 57.512C489.643 58.84 492.328 60.189 495 61.5588L494.772 62.0037C497.442 63.3723 500.1 64.7616 502.745 66.1715L502.98 65.7302C505.631 67.1434 508.27 68.5772 510.895 70.0314L510.653 70.4688C513.28 71.9238 515.894 73.3992 518.495 74.8948L518.744 74.4613C521.348 75.9583 523.938 77.4755 526.515 79.0128L526.258 79.4422C528.836 80.9798 531.4 82.5375 533.951 84.1151L534.214 83.6899C536.769 85.2707 539.312 86.8714 541.84 88.4918L541.57 88.9127C544.096 90.5317 546.609 92.1703 549.107 93.8285L549.383 93.4119C551.886 95.0729 554.374 96.7534 556.849 98.4533L556.566 98.8654C559.04 100.565 561.5 102.284 563.946 104.023L564.235 103.615C566.683 105.355 569.116 107.114 571.534 108.892L571.238 109.295C573.656 111.072 576.059 112.868 578.447 114.683L578.75 114.285C581.142 116.103 583.518 117.94 585.88 119.795L585.571 120.188C587.931 122.041 590.275 123.913 592.604 125.804L592.919 125.415C595.251 127.308 597.567 129.219 599.868 131.148L599.546 131.531C601.846 133.459 604.13 135.406 606.398 137.37L606.726 136.992C608.996 138.958 611.25 140.942 613.488 142.943L613.155 143.316C615.391 145.316 617.612 147.333 619.816 149.369L620.155 149.001C622.362 151.039 624.552 153.094 626.725 155.166L626.38 155.528C628.552 157.598 630.707 159.685 632.846 161.79L633.196 161.434C635.336 163.54 637.46 165.663 639.566 167.804L639.21 168.154C641.314 170.293 643.402 172.448 645.472 174.619L645.834 174.274C647.906 176.448 649.961 178.638 651.999 180.845L651.631 181.184C653.666 183.388 655.684 185.608 657.684 187.845L658.057 187.512C660.058 189.75 662.042 192.004 664.008 194.274L663.63 194.601C665.594 196.87 667.54 199.154 669.469 201.453L669.852 201.132C671.781 203.433 673.692 205.749 675.584 208.081L675.196 208.396C677.086 210.725 678.958 213.069 680.812 215.429L681.205 215.12C683.06 217.481 684.897 219.858 686.714 222.25L686.316 222.553C688.131 224.941 689.928 227.344 691.705 229.762L692.108 229.465C693.886 231.884 695.645 234.317 697.385 236.765L696.977 237.054C698.715 239.5 700.435 241.96 702.135 244.434L702.547 244.151C704.246 246.625 705.927 249.114 707.588 251.617L707.172 251.893C708.83 254.391 710.468 256.904 712.087 259.43L712.508 259.16C714.129 261.688 715.729 264.231 717.31 266.786L716.885 267.049C718.463 269.6 720.02 272.164 721.558 274.742L721.987 274.485C723.524 277.062 725.042 279.653 726.539 282.256L726.105 282.505C727.601 285.106 729.076 287.72 730.531 290.347L730.969 290.105C732.423 292.731 733.857 295.369 735.27 298.02L734.829 298.255C736.239 300.9 737.628 303.558 738.996 306.228L739.441 306C740.811 308.672 742.16 311.357 743.488 314.054L743.04 314.275C744.364 316.965 745.668 319.667 746.951 322.382L747.403 322.168C748.684 324.88 749.945 327.603 751.184 330.339L750.728 330.545C751.966 333.278 753.183 336.022 754.378 338.778L754.837 338.579C756.031 341.333 757.204 344.098 758.355 346.874L757.893 347.065C759.041 349.832 760.167 352.611 761.271 355.4L761.736 355.216C762.842 358.008 763.925 360.811 764.987 363.624L764.519 363.801C765.578 366.606 766.615 369.423 767.629 372.249L768.1 372.081C769.113 374.902 770.103 377.733 771.072 380.575L770.599 380.736C771.567 383.575 772.512 386.425 773.436 389.284L773.912 389.131C774.834 391.987 775.734 394.854 776.612 397.73L776.134 397.876C777.008 400.739 777.859 403.612 778.688 406.494L779.169 406.356C779.998 409.241 780.806 412.135 781.59 415.039L781.108 415.169C781.89 418.066 782.65 420.971 783.387 423.886L783.872 423.763C784.606 426.666 785.318 429.578 786.007 432.499L785.52 432.614C786.208 435.532 786.874 438.459 787.516 441.395L788.005 441.288C788.647 444.223 789.267 447.166 789.863 450.118L789.373 450.217C789.965 453.148 790.534 456.087 791.08 459.034L791.572 458.943C792.118 461.893 792.642 464.85 793.143 467.816L792.65 467.899C793.149 470.861 793.626 473.831 794.079 476.809L794.573 476.734C795.023 479.69 795.45 482.654 795.854 485.625L795.359 485.692C795.762 488.661 796.142 491.637 796.499 494.62L796.995 494.56C797.352 497.546 797.686 500.539 797.996 503.539L797.499 503.59C797.806 506.562 798.09 509.541 798.35 512.527L798.849 512.483C799.109 515.468 799.346 518.46 799.56 521.458L799.061 521.494C799.275 524.489 799.465 527.491 799.631 530.5L800.131 530.472C800.296 533.461 800.438 536.455 800.556 539.456L800.057 539.476C800.174 542.464 800.269 545.459 800.34 548.46L800.84 548.448C800.911 551.451 800.958 554.46 800.982 557.475L800.482 557.479C800.487 558.084 800.491 558.69 800.494 559.296C800.498 560.197 800.5 561.098 800.5 562C800.5 563.509 800.494 565.016 800.482 566.522L800.982 566.526C800.958 569.541 800.911 572.55 800.84 575.553L800.34 575.541C800.269 578.542 800.174 581.537 800.056 584.526L800.556 584.545C800.438 587.546 800.296 590.541 800.13 593.529L799.631 593.501C799.465 596.51 799.275 599.512 799.061 602.507L799.56 602.543C799.346 605.541 799.109 608.533 798.849 611.518L798.35 611.474C798.09 614.46 797.806 617.439 797.499 620.411L797.996 620.462C797.686 623.462 797.352 626.455 796.995 629.441L796.499 629.381C796.142 632.364 795.762 635.34 795.358 638.309L795.854 638.376C795.45 641.347 795.023 644.311 794.573 647.267L794.079 647.192C793.626 650.169 793.149 653.139 792.649 656.102L793.142 656.185C792.642 659.15 792.118 662.108 791.572 665.058L791.08 664.967C790.534 667.914 789.965 670.853 789.373 673.784L789.863 673.883C789.266 676.834 788.647 679.778 788.005 682.713L787.516 682.606C786.874 685.541 786.208 688.469 785.52 691.387L786.007 691.502C785.318 694.422 784.606 697.334 783.872 700.238L783.387 700.115C782.65 703.03 781.89 705.935 781.107 708.831L781.59 708.962C780.806 711.865 779.998 714.76 779.168 717.645L778.688 717.506C777.859 720.389 777.008 723.261 776.134 726.124L776.612 726.27C775.734 729.147 774.834 732.013 773.911 734.87L773.436 734.716C772.512 737.576 771.567 740.425 770.599 743.264L771.072 743.426C770.103 746.267 769.112 749.099 768.1 751.92L767.629 751.751C766.614 754.578 765.577 757.394 764.519 760.2L764.987 760.376C763.925 763.19 762.841 765.993 761.736 768.784L761.271 768.6C760.167 771.39 759.041 774.168 757.893 776.935L758.355 777.127C757.204 779.903 756.031 782.668 754.837 785.421L754.378 785.222C753.183 787.978 751.966 790.723 750.728 793.455L751.184 793.662C749.944 796.397 748.684 799.121 747.403 801.832L746.951 801.619C745.668 804.333 744.364 807.035 743.039 809.725L743.488 809.946C742.16 812.643 740.811 815.328 739.441 818L738.996 817.772C737.628 820.442 736.238 823.1 734.828 825.745L735.27 825.98C733.857 828.631 732.423 831.27 730.969 833.895L730.531 833.653C729.076 836.28 727.601 838.894 726.105 841.495L726.539 841.744C725.042 844.348 723.524 846.938 721.987 849.515L721.558 849.258C720.02 851.836 718.462 854.4 716.885 856.951L717.31 857.214C715.729 859.769 714.129 862.312 712.508 864.84L712.087 864.57C710.468 867.096 708.83 869.609 707.172 872.107L707.588 872.383C705.927 874.886 704.247 877.374 702.547 879.849L702.135 879.566C700.435 882.04 698.716 884.5 696.977 886.946L697.385 887.235C695.645 889.683 693.886 892.116 692.108 894.534L691.705 894.238C689.928 896.656 688.132 899.059 686.317 901.447L686.715 901.75C684.897 904.142 683.06 906.518 681.205 908.88L680.812 908.571C678.958 910.931 677.087 913.275 675.196 915.604L675.585 915.919C673.692 918.251 671.781 920.567 669.852 922.868L669.469 922.547C667.541 924.846 665.594 927.13 663.63 929.398L664.008 929.726C662.042 931.996 660.059 934.25 658.057 936.488L657.684 936.155C655.684 938.391 653.667 940.612 651.631 942.816L651.999 943.155C649.961 945.362 647.906 947.552 645.834 949.725L645.472 949.38C643.402 951.552 641.315 953.707 639.21 955.846L639.566 956.196C637.46 958.336 635.337 960.46 633.196 962.566L632.846 962.21C630.707 964.314 628.552 966.402 626.381 968.472L626.726 968.834C624.552 970.906 622.362 972.961 620.155 974.999L619.816 974.631C617.612 976.666 615.392 978.684 613.155 980.684L613.488 981.057C611.25 983.058 608.996 985.042 606.726 987.008L606.398 986.63C604.13 988.594 601.846 990.54 599.547 992.469L599.868 992.852C597.567 994.781 595.251 996.692 592.919 998.584L592.604 998.196C590.275 1000.09 587.931 1001.96 585.571 1003.81L585.88 1004.21C583.519 1006.06 581.142 1007.9 578.75 1009.71L578.447 1009.32C576.059 1011.13 573.656 1012.93 571.238 1014.71L571.535 1015.11C569.116 1016.89 566.683 1018.64 564.235 1020.38L563.946 1019.98C561.5 1021.72 559.04 1023.43 556.566 1025.13L556.849 1025.55C554.375 1027.25 551.886 1028.93 549.383 1030.59L549.107 1030.17C546.609 1031.83 544.096 1033.47 541.57 1035.09L541.84 1035.51C539.312 1037.13 536.769 1038.73 534.214 1040.31L533.951 1039.88C531.4 1041.46 528.836 1043.02 526.258 1044.56L526.515 1044.99C523.938 1046.52 521.348 1048.04 518.744 1049.54L518.495 1049.11C515.894 1050.6 513.28 1052.08 510.653 1053.53L510.895 1053.97C508.269 1055.42 505.631 1056.86 502.98 1058.27L502.745 1057.83C500.1 1059.24 497.442 1060.63 494.772 1062L495 1062.44C492.328 1063.81 489.643 1065.16 486.946 1066.49L486.725 1066.04C484.035 1067.36 481.333 1068.67 478.618 1069.95L478.832 1070.4C476.12 1071.68 473.397 1072.94 470.661 1074.18L470.455 1073.73C467.722 1074.97 464.978 1076.18 462.222 1077.38L462.421 1077.84C459.667 1079.03 456.902 1080.2 454.126 1081.36L453.935 1080.89C451.168 1082.04 448.389 1083.17 445.6 1084.27L445.784 1084.74C442.992 1085.84 440.19 1086.93 437.376 1087.99L437.199 1087.52C434.394 1088.58 431.577 1089.61 428.751 1090.63L428.919 1091.1C426.098 1092.11 423.267 1093.1 420.425 1094.07L420.264 1093.6C417.425 1094.57 414.575 1095.51 411.716 1096.44L411.869 1096.91C409.013 1097.83 406.146 1098.73 403.27 1099.61L403.124 1099.13C400.261 1100.01 397.388 1100.86 394.506 1101.69L394.644 1102.17C391.759 1103 388.865 1103.81 385.961 1104.59L385.831 1104.11C382.934 1104.89 380.029 1105.65 377.114 1106.39L377.237 1106.87C374.334 1107.61 371.422 1108.32 368.501 1109.01L368.386 1108.52C365.468 1109.21 362.541 1109.87 359.605 1110.52L359.712 1111C356.777 1111.65 353.834 1112.27 350.882 1112.86L350.783 1112.37C347.852 1112.96 344.913 1113.53 341.966 1114.08L342.057 1114.57C339.107 1115.12 336.15 1115.64 333.184 1116.14L333.101 1115.65C330.139 1116.15 327.169 1116.63 324.191 1117.08L324.266 1117.57C321.31 1118.02 318.346 1118.45 315.375 1118.85L315.308 1118.36C312.339 1118.76 309.363 1119.14 306.38 1119.5L306.44 1120C303.454 1120.35 300.461 1120.69 297.461 1121L297.41 1120.5C294.438 1120.81 291.459 1121.09 288.473 1121.35L288.517 1121.85C285.532 1122.11 282.54 1122.35 279.542 1122.56L279.506 1122.06C276.511 1122.27 273.509 1122.46 270.5 1122.63L270.528 1123.13C267.539 1123.3 264.545 1123.44 261.544 1123.56L261.524 1123.06C258.536 1123.17 255.541 1123.27 252.54 1123.34L252.552 1123.84C249.549 1123.91 246.54 1123.96 243.525 1123.98L243.521 1123.48C242.848 1123.49 242.174 1123.49 241.501 1123.49C240.667 1123.5 239.834 1123.5 239 1123.5C237.491 1123.5 235.984 1123.49 234.478 1123.48L234.474 1123.98C231.459 1123.96 228.45 1123.91 225.447 1123.84L225.459 1123.34C222.458 1123.27 219.463 1123.17 216.474 1123.06L216.455 1123.56C213.454 1123.44 210.459 1123.3 207.471 1123.13L207.499 1122.63C204.49 1122.46 201.488 1122.27 198.493 1122.06L198.457 1122.56C195.459 1122.35 192.467 1122.11 189.482 1121.85L189.526 1121.35C186.54 1121.09 183.561 1120.81 180.589 1120.5L180.538 1121C177.538 1120.69 174.545 1120.35 171.559 1120L171.619 1119.5C168.636 1119.14 165.66 1118.76 162.691 1118.36L162.624 1118.85C159.653 1118.45 156.689 1118.02 153.733 1117.57L153.808 1117.08C150.831 1116.63 147.861 1116.15 144.898 1115.65L144.815 1116.14C141.85 1115.64 138.892 1115.12 135.942 1114.57L136.033 1114.08C133.086 1113.53 130.147 1112.96 127.216 1112.37L127.117 1112.86C124.166 1112.27 121.222 1111.65 118.287 1111L118.394 1110.52C115.459 1109.87 112.531 1109.21 109.613 1108.52L109.498 1109.01C106.578 1108.32 103.666 1107.61 100.762 1106.87L100.885 1106.39C97.9704 1105.65 95.0649 1104.89 92.1686 1104.11L92.0382 1104.59C89.1346 1103.81 86.2402 1103 83.3554 1102.17L83.4936 1101.69C80.6114 1100.86 77.7386 1100.01 74.8756 1099.13L74.7297 1099.61C71.8532 1098.73 68.9866 1097.83 66.1299 1096.91L66.2836 1096.44C63.4242 1095.51 60.5748 1094.57 57.7356 1093.6L57.5743 1094.07C54.7325 1093.1 51.9011 1092.11 49.08 1091.1L49.249 1090.63C46.4221 1089.61 43.6057 1088.58 40.8001 1087.52L40.6236 1087.99C37.8101 1086.92 35.0073 1085.84 32.2155 1084.74L32.3996 1084.27C29.6103 1083.17 26.8319 1082.04 24.0648 1080.89L23.8733 1081.36C21.0971 1080.2 18.3323 1079.03 15.5788 1077.84L15.7778 1077.38C13.0218 1076.18 10.2773 1074.97 7.54453 1073.73L7.3382 1074.18C4.60294 1072.94 1.87939 1071.68 -0.832275 1070.4L-0.618652 1069.95C-3.33289 1068.67 -6.03519 1067.36 -8.72534 1066.04L-8.94623 1066.49C-11.6432 1065.16 -14.3279 1063.81 -17.0003 1062.44L-16.7722 1062C-19.4422 1060.63 -22.0997 1059.24 -24.7447 1057.83L-24.9799 1058.27C-27.6311 1056.86 -30.2696 1055.42 -32.8952 1053.97L-32.653 1053.53C-35.2799 1052.08 -37.894 1050.6 -40.495 1049.11L-40.7443 1049.54C-43.3476 1048.04 -45.9378 1046.52 -48.5146 1044.99L-48.2585 1044.56C-50.8359 1043.02 -53.4 1041.46 -55.9506 1039.88L-56.2136 1040.31C-58.7694 1038.73 -61.3116 1037.13 -63.8399 1035.51L-63.5701 1035.09C-66.0962 1033.47 -68.6085 1031.83 -71.1068 1030.17L-71.3832 1030.59C-73.8859 1028.93 -76.3745 1027.25 -78.8487 1025.55L-78.5656 1025.13C-81.04 1023.43 -83.5 1021.72 -85.9456 1019.98L-86.2352 1020.38C-88.6829 1018.64 -91.1161 1016.89 -93.5345 1015.11L-93.2384 1014.71C-95.6562 1012.93 -98.0592 1011.13 -100.447 1009.32L-100.75 1009.71C-103.142 1007.9 -105.518 1006.06 -107.88 1004.21L-107.571 1003.81C-109.931 1001.96 -112.275 1000.09 -114.604 998.196L-114.919 998.585C-117.251 996.692 -119.567 994.781 -121.868 992.852L-121.546 992.469C-123.846 990.541 -126.13 988.594 -128.398 986.63L-128.726 987.008C-130.996 985.042 -133.25 983.059 -135.488 981.057L-135.155 980.684C-137.391 978.684 -139.612 976.667 -141.816 974.631L-142.155 974.999C-144.362 972.961 -146.552 970.906 -148.725 968.834L-148.38 968.472C-150.552 966.402 -152.707 964.315 -154.846 962.21L-155.196 962.566C-157.336 960.46 -159.46 958.337 -161.566 956.196L-161.21 955.846C-163.314 953.707 -165.402 951.552 -167.472 949.381L-167.834 949.726C-169.906 947.552 -171.961 945.362 -173.999 943.155L-173.631 942.816C-175.666 940.612 -177.684 938.392 -179.684 936.155L-180.057 936.488C-182.058 934.25 -184.042 931.996 -186.008 929.726L-185.63 929.398C-187.594 927.13 -189.54 924.846 -191.469 922.547L-191.852 922.868C-193.781 920.567 -195.692 918.251 -197.584 915.919L-197.196 915.604C-199.086 913.275 -200.958 910.931 -202.812 908.571L-203.205 908.88C-205.06 906.519 -206.897 904.142 -208.715 901.75L-208.316 901.447C-210.131 899.059 -211.928 896.656 -213.705 894.238L-214.108 894.535C-215.886 892.116 -217.645 889.683 -219.385 887.235L-218.977 886.946C-220.715 884.5 -222.435 882.04 -224.135 879.566L-224.547 879.849C-226.247 877.375 -227.927 874.886 -229.588 872.383L-229.172 872.107C-230.83 869.609 -232.468 867.096 -234.087 864.57L-234.508 864.84C-236.129 862.312 -237.729 859.769 -239.31 857.214L-238.885 856.951C-240.462 854.4 -242.02 851.836 -243.558 849.258L-243.987 849.515C-245.524 846.938 -247.042 844.347 -248.539 841.744L-248.105 841.495C-249.601 838.894 -251.076 836.28 -252.531 833.653L-252.969 833.895C-254.423 831.269 -255.857 828.631 -257.27 825.98L-256.829 825.745C-258.238 823.1 -259.628 820.442 -260.996 817.772L-261.441 818C-262.811 815.328 -264.16 812.643 -265.488 809.946L-265.04 809.725C-266.364 807.035 -267.668 804.333 -268.951 801.618L-269.403 801.832C-270.684 799.12 -271.945 796.397 -273.184 793.661L-272.728 793.455C-273.966 790.722 -275.183 787.978 -276.378 785.222L-276.837 785.421C-278.031 782.667 -279.204 779.902 -280.355 777.126L-279.893 776.935C-281.041 774.168 -282.167 771.389 -283.271 768.6L-283.736 768.784C-284.841 765.992 -285.925 763.19 -286.987 760.376L-286.519 760.199C-287.578 757.394 -288.614 754.577 -289.629 751.751L-290.1 751.919C-291.113 749.098 -292.103 746.267 -293.072 743.425L-292.599 743.264C-293.567 740.425 -294.512 737.575 -295.436 734.716L-295.912 734.869C-296.834 732.013 -297.734 729.146 -298.612 726.27L-298.134 726.124C-299.008 723.261 -299.859 720.388 -300.688 717.506L-301.169 717.644C-301.998 714.759 -302.806 711.865 -303.59 708.961L-303.108 708.831C-303.89 705.934 -304.65 703.029 -305.387 700.114L-305.872 700.237C-306.606 697.334 -307.318 694.422 -308.007 691.501L-307.52 691.386C-308.208 688.468 -308.874 685.541 -309.516 682.605L-310.005 682.712C-310.647 679.777 -311.267 676.834 -311.863 673.882L-311.373 673.783C-311.965 670.852 -312.534 667.913 -313.08 664.966L-313.572 665.057C-314.119 662.107 -314.642 659.15 -315.143 656.184L-314.65 656.101C-315.149 653.139 -315.626 650.169 -316.079 647.191L-316.573 647.266C-317.023 644.31 -317.45 641.346 -317.854 638.375L-317.359 638.308C-317.762 635.339 -318.142 632.363 -318.499 629.38L-318.995 629.44C-319.352 626.454 -319.686 623.461 -319.996 620.461L-319.499 620.41C-319.806 617.438 -320.09 614.459 -320.35 611.473L-320.849 611.517C-321.109 608.532 -321.346 605.54 -321.56 602.542L-321.061 602.506C-321.275 599.511 -321.465 596.509 -321.631 593.5L-322.131 593.528C-322.296 590.539 -322.438 587.545 -322.556 584.544L-322.056 584.524C-322.174 581.536 -322.269 578.541 -322.34 575.54L-322.84 575.552C-322.911 572.549 -322.958 569.54 -322.982 566.525L-322.482 566.521C-322.494 565.016 -322.5 563.508 -322.5 562Z" stroke="white" stroke-dasharray="9 9"/>
</svg>
