<svg width="237" height="155" viewBox="0 0 237 155" fill="none" xmlns="http://www.w3.org/2000/svg">
<path fill-rule="evenodd" clip-rule="evenodd" d="M169.715 123.158C158.716 119.106 143.372 121.272 135.421 129.885C121.17 145.323 100.704 155 77.9641 155C34.9057 155 0 120.302 0 77.5C0 34.6979 34.9057 0 77.9641 0C100.465 0 120.739 9.47515 134.97 24.6305C142.993 33.1751 158.353 35.2093 169.316 31.0633C174.815 28.9835 180.784 27.8443 187.021 27.8443C214.445 27.8443 236.677 49.8681 236.677 77.0359C236.677 104.204 214.445 126.228 187.021 126.228C180.935 126.228 175.104 125.143 169.715 123.158Z" fill="white"/>
</svg>
