<svg width="338" height="284" viewBox="0 0 338 284" fill="none" xmlns="http://www.w3.org/2000/svg">
<g clip-path="url(#clip0_65_65)">
<path d="M219.77 82.9481C219.77 82.9481 219.236 83.5974 218.277 84.5243L218.003 84.7825C213.886 88.6433 203.161 96.3165 192.216 84.3993C183.581 74.998 182.385 61.6451 182.73 52.8301C182.933 47.4069 183.725 43.706 183.725 43.706L190.203 50.7624L205.763 67.6969C203.238 70.0683 203.107 74.0726 205.467 76.6352C207.822 79.2068 211.786 79.3721 214.312 77.0008L219.77 82.9481Z" fill="white" stroke="#2A2A41" stroke-width="4.252" stroke-miterlimit="10" stroke-linejoin="round"/>
<path d="M214.312 77.0008C211.786 79.3721 207.822 79.2068 205.467 76.6352C203.107 74.0726 203.238 70.0683 205.763 67.6969L214.312 77.0008Z" fill="white" stroke="#2A2A41" stroke-width="4.252" stroke-miterlimit="10" stroke-linejoin="round"/>
<path d="M221.912 81.1162L221.513 81.4926C220.484 82.4387 219.77 82.9481 219.77 82.9481L214.312 77.0008C216.831 74.6314 216.97 70.6322 214.608 68.0625C212.246 65.4928 208.291 65.3327 205.764 67.6969L190.203 50.7624L183.726 43.706C183.726 43.706 187.518 43.1735 192.986 43.3787C201.71 43.7167 214.672 45.9457 223.253 55.2861C234.026 67.0152 226.089 77.1174 221.912 81.1162Z" fill="white" stroke="#2A2A41" stroke-width="4.252" stroke-miterlimit="10" stroke-linejoin="round"/>
<path d="M214.311 77.0008L205.763 67.6969C208.291 65.3327 212.245 65.4928 214.608 68.0625C216.97 70.6322 216.83 74.6314 214.311 77.0008Z" fill="white" stroke="#2A2A41" stroke-width="4.252" stroke-miterlimit="10" stroke-linejoin="round"/>
<path d="M205.836 76.2975L205.835 76.2965C203.659 73.9334 203.782 70.2432 206.105 68.0618C208.428 65.8898 212.064 66.0336 214.24 68.4009C216.418 70.7707 216.287 74.4562 213.969 76.6363C211.649 78.8146 208.006 78.6663 205.836 76.2975Z" fill="black" stroke="black"/>
<path d="M234.734 80.2366C234.697 81.4558 234.196 82.6585 233.25 83.5513L230.753 85.8918L221.865 94.2352L219.368 96.5758C217.473 98.3543 214.474 98.2264 212.695 96.3011C211.813 95.3365 211.393 94.0918 211.431 92.8726C211.467 91.6463 211.968 90.4436 212.916 89.5579L218.003 84.7825L218.277 84.5243L221.513 81.4926L221.912 81.1162L226.805 76.5316C228.699 74.753 231.699 74.8809 233.471 76.8081C234.353 77.7727 234.779 79.0155 234.734 80.2366Z" fill="white" stroke="#2A2A41" stroke-width="4.252" stroke-miterlimit="10" stroke-linejoin="round"/>
<path d="M231.854 86.8339L332.525 195.792C334.834 198.308 334.699 202.268 332.227 204.587L332.083 204.718C329.61 207.036 325.696 206.888 323.378 204.367L222.707 95.4085C222.374 95.0446 222.081 94.639 221.854 94.223L230.742 85.8796C231.147 86.1478 231.521 86.47 231.854 86.8339Z" fill="#6B8CFF" stroke="black" stroke-width="4.252" stroke-miterlimit="10" stroke-linejoin="round"/>
<path d="M22.6803 90.7071C37.7231 105.284 73.1944 132.149 101.866 95.7078C129.815 60.1814 161.674 48.713 176.015 45.1858" stroke="#4462E6" stroke-width="4.252" stroke-miterlimit="10" stroke-dasharray="8.5 8.5"/>
<path d="M18.1295 74.2611L1.90088 78.7515L6.45144 95.1975L22.68 90.7071L18.1295 74.2611Z" stroke="#2A2A41" stroke-width="4.252" stroke-miterlimit="10"/>
<path d="M190.135 33.0761L192.986 43.3787C187.518 43.1735 183.725 43.706 183.725 43.706C183.725 43.706 182.933 47.4069 182.73 52.8301L178.457 54.0125L173.906 37.5665L190.135 33.0761Z" stroke="#2A2A41" stroke-width="4.252" stroke-miterlimit="10"/>
</g>
<defs>
<clipPath id="clip0_65_65">
<rect width="291.207" height="213.281" fill="white" transform="translate(0 77.6583) rotate(-15.4666)"/>
</clipPath>
</defs>
</svg>
